PathFileType	4	(X/Y/Z)	C:\Users\s5001683\Documents\PhD\FASHiON\BaselineData\3. CleanedGaitData\ElaboratedData\FAS-906\Session 1\staticElaborations\StaticCalibration\Static\\StaticCalibration.trc
DataRate	CameraRate	NumFrames	NumMarkers	Units	OrigDataRate	DataStartFrame
120	120	4	90	mm	120	2
Frame#	Time	RFHD			LFHD			RBHD			LBHD			C7			T10			CLAV			STRN			RASI			LASI			RPSI			LPSI			RTH1			RTH2			RTH3			RTH4			RTH5			RTH6			RMFC			RLFC			RTB1			RTB2			RTB3			RTB4			RTB5			RTB6			RMMAL			RLMAL			RCAL			RMT1			RMT23			RMT5			LMT1			LMT23			LMT5			LCAL			LMMAL			LLMAL			LTB1			LTB2			LTB3			LTB4			LTB5			LTB6			LMFC			LLFC			LTH1			LTH2			LTH3			LTH4			LTH5			LTH6			LACR			LASH			LPSH			LUA1			LUA2			LUA3			LMEL			LLEL			LFA1			LFA3			LFA2			LWRU			LWRR			RACR			RASH			RPSH			RUA1			RUA2			RUA3			RMEL			RLEL			RFA1			RFA2			RFA3			RWRU			RWRR			LAJC			RAJC			LEJC			REJC			LHJC			RHJC			LKJC			RKJC			LSJC			RSJC			LWJC			RWJC		
		X1	Y1	Z1	X2	Y2	Z2	X3	Y3	Z3	X4	Y4	Z4	X5	Y5	Z5	X6	Y6	Z6	X7	Y7	Z7	X8	Y8	Z8	X9	Y9	Z9	X10	Y10	Z10	X11	Y11	Z11	X12	Y12	Z12	X13	Y13	Z13	X14	Y14	Z14	X15	Y15	Z15	X16	Y16	Z16	X17	Y17	Z17	X18	Y18	Z18	X19	Y19	Z19	X20	Y20	Z20	X21	Y21	Z21	X22	Y22	Z22	X23	Y23	Z23	X24	Y24	Z24	X25	Y25	Z25	X26	Y26	Z26	X27	Y27	Z27	X28	Y28	Z28	X29	Y29	Z29	X30	Y30	Z30	X31	Y31	Z31	X32	Y32	Z32	X33	Y33	Z33	X34	Y34	Z34	X35	Y35	Z35	X36	Y36	Z36	X37	Y37	Z37	X38	Y38	Z38	X39	Y39	Z39	X40	Y40	Z40	X41	Y41	Z41	X42	Y42	Z42	X43	Y43	Z43	X44	Y44	Z44	X45	Y45	Z45	X46	Y46	Z46	X47	Y47	Z47	X48	Y48	Z48	X49	Y49	Z49	X50	Y50	Z50	X51	Y51	Z51	X52	Y52	Z52	X53	Y53	Z53	X54	Y54	Z54	X55	Y55	Z55	X56	Y56	Z56	X57	Y57	Z57	X58	Y58	Z58	X59	Y59	Z59	X60	Y60	Z60	X61	Y61	Z61	X62	Y62	Z62	X63	Y63	Z63	X64	Y64	Z64	X65	Y65	Z65	X66	Y66	Z66	X67	Y67	Z67	X68	Y68	Z68	X69	Y69	Z69	X70	Y70	Z70	X71	Y71	Z71	X72	Y72	Z72	X73	Y73	Z73	X74	Y74	Z74	X75	Y75	Z75	X76	Y76	Z76	X77	Y77	Z77	X78	Y78	Z78	X79	Y79	Z79	X80	Y80	Z80	X81	Y81	Z81	X82	Y82	Z82	X83	Y83	Z83	X84	Y84	Z84	X85	Y85	Z85	X86	Y86	Z86	X87	Y87	Z87	X88	Y88	Z88	X89	Y89	Z89	X90	Y90	Z90	

106	0.875000	775.738159	1618.371826	-189.257538	779.594177	1618.463013	-295.523682	631.892761	1544.235107	-180.237579	626.595764	1544.201172	-319.193939	609.774841	1421.440796	-249.141037	607.570862	1126.506836	-251.692703	749.713379	1352.233887	-245.015549	801.297302	1144.694092	-243.782761	769.322571	941.347107	-107.545853	768.901855	947.088257	-379.309540	597.950073	972.239990	-184.555359	596.737854	983.851196	-295.305542	733.394470	719.043823	-58.528282	769.115845	651.871765	-97.464661	716.771667	591.543945	-83.517044	806.061829	728.022827	-157.468048	771.195618	672.938660	-213.847473	782.175964	596.916992	-170.896408	664.173950	447.831757	-222.673996	693.320129	451.260712	-105.534187	685.608276	332.920227	-186.747513	694.437317	269.161926	-120.360367	675.356567	202.438782	-175.947708	658.126526	350.977081	-85.050278	601.760132	287.289581	-106.711754	655.831055	221.509827	-101.403625	649.456116	107.169327	-204.252502	634.300354	87.712524	-123.408379	577.773682	67.162132	-169.109589	782.840637	48.163033	-199.202896	790.625061	57.614113	-158.724182	770.471497	47.045788	-105.881897	777.353882	54.982368	-306.569580	781.618774	57.143940	-360.094849	754.161743	38.863766	-402.341980	573.803284	64.053192	-323.406250	644.949402	98.172050	-286.636261	625.835693	94.993622	-364.180695	696.120789	371.240784	-303.955231	710.547607	305.175842	-355.187073	676.453125	241.438080	-309.785187	657.502136	315.496735	-407.556183	600.653870	254.930649	-380.236084	648.970520	186.128189	-381.545258	667.625854	436.824005	-275.891357	679.108521	450.913086	-395.646912	678.377136	735.844360	-439.267426	735.539063	676.170532	-417.157074	689.942871	607.621948	-410.005798	785.753906	809.934326	-396.152191	802.245605	741.319031	-340.969513	775.065674	672.412109	-391.043121	680.111938	1404.509888	-387.508484	758.376099	1285.570313	-396.609497	607.620239	1247.658325	-384.249756	666.794495	1292.540771	-471.064392	740.209045	1290.729980	-513.031067	746.199707	1202.915405	-534.044128	814.000244	1130.285400	-531.245300	814.344360	1165.215088	-583.018311	892.753601	1105.830566	-648.412720	936.236511	1137.850586	-618.285950	898.493835	1143.325684	-631.664062	979.440369	1061.798096	-694.520447	1015.179626	1063.340088	-643.069031	649.233704	1397.696411	-105.593109	740.214661	1288.980347	-104.946587	604.230286	1244.499512	-100.497070	639.895081	1287.202271	-28.068180	706.279785	1294.745605	25.249777	712.725769	1213.311768	57.013710	773.806152	1123.932129	60.053856	782.768860	1173.616455	113.524506	882.926270	1097.216187	181.799179	887.137634	1141.148315	157.881851	924.646301	1133.024048	138.587234	951.611389	1064.309326	210.819061	999.570435	1081.606567	165.154831	635.392548	96.582836	-325.408478	641.878235	97.440926	-163.830441	814.172302	1147.750244	-557.131805	778.287506	1148.774292	86.789181	700.123121	865.635597	-342.004876	700.423390	861.538075	-148.044116	673.367188	443.868546	-335.769135	678.747040	449.546234	-164.104092	682.998169	1266.614319	-390.429626	672.222473	1266.739929	-102.721828	997.309998	1062.569092	-668.794739	975.590912	1072.957947	187.986946	
107	0.883333	775.581482	1618.331787	-189.250107	779.458252	1618.413940	-295.479980	631.753784	1544.252563	-180.212296	626.462219	1544.243042	-319.176697	609.635559	1421.444214	-249.099365	607.419250	1126.534058	-251.591263	749.576477	1352.237183	-245.012848	801.169128	1144.697388	-243.757980	769.187805	941.358459	-107.530807	768.769775	947.102478	-379.291595	597.802795	972.254028	-184.531052	596.599792	983.848389	-295.269867	733.355652	719.047241	-58.547646	769.055725	651.890686	-97.420158	716.766785	591.524109	-83.538376	805.997192	728.050415	-157.461533	771.158691	672.960571	-213.824432	782.077698	596.927124	-170.909180	664.107483	447.916504	-222.623474	693.376282	451.248108	-105.530556	685.565369	332.889435	-186.768829	694.441223	269.137268	-120.389778	675.424805	202.445358	-175.954941	658.194214	350.969543	-85.071388	601.752014	287.278534	-106.693581	655.908508	221.445221	-101.421158	649.431458	107.165573	-204.235306	634.263855	87.722282	-123.390305	577.750793	67.131088	-169.077911	782.825439	48.157829	-199.234329	790.668152	57.606213	-158.696045	770.456543	47.067638	-105.846329	777.358093	54.995724	-306.580414	781.615417	57.122673	-360.063934	754.123352	38.850159	-402.314850	573.791077	64.035599	-323.404877	644.911438	98.175255	-286.663055	625.804382	94.983910	-364.219910	696.039490	371.256104	-303.936859	710.518372	305.194946	-355.183197	676.442200	241.414368	-309.783173	657.445679	315.465179	-407.528046	600.608521	254.933121	-380.266052	648.924255	186.097092	-381.551147	667.473877	436.857452	-275.954803	679.049927	450.900116	-395.652405	678.257690	735.839050	-439.273987	735.421570	676.164856	-417.183624	689.747437	607.584839	-409.840179	785.614136	809.945923	-396.155792	802.188049	741.317200	-341.005585	774.985718	672.403259	-391.035767	679.954468	1404.510132	-387.485992	758.191162	1285.591187	-396.623871	607.474426	1247.656738	-384.245300	666.657166	1292.533813	-471.025024	740.020813	1290.723877	-512.977539	746.055054	1202.893066	-533.947815	813.877014	1130.279541	-531.150818	814.205444	1165.193359	-582.927185	892.673096	1105.811401	-648.352783	936.013733	1137.686646	-618.003174	898.334534	1143.394775	-631.545227	979.327332	1061.760010	-694.398254	1015.044922	1063.319458	-642.978577	649.114502	1397.669189	-105.521370	740.037048	1288.926270	-104.903572	604.105408	1244.489502	-100.508965	639.755493	1287.188599	-27.991671	706.135620	1294.686401	25.284309	712.604126	1213.305908	56.997662	773.649109	1123.897217	60.086391	782.638855	1173.590820	113.543106	882.760620	1097.177612	181.779495	887.060364	1141.114624	157.861313	924.525452	1132.960938	138.535294	951.490112	1064.298706	210.811127	999.434448	1081.523926	165.095734	635.357910	96.579582	-325.441483	641.847656	97.443928	-163.812805	814.041229	1147.736450	-557.039001	778.143982	1148.744019	86.814749	699.992869	865.647300	-341.989019	700.291222	861.547727	-148.030176	673.261902	443.878784	-335.803604	678.741882	449.582306	-164.077015	682.832794	1266.623962	-390.434586	672.071228	1266.707886	-102.706268	997.186127	1062.539734	-668.688416	975.462280	1072.911316	187.953430	
108	0.891667	775.430847	1618.317871	-189.177200	779.337097	1618.379028	-295.432800	631.564331	1544.298706	-180.210861	626.309082	1544.279663	-319.170929	609.480591	1421.436768	-249.114914	607.308716	1126.503906	-251.735352	749.385864	1352.229126	-244.968048	801.044373	1144.691528	-243.766907	769.060425	941.343689	-107.489738	768.668701	947.085754	-379.282196	597.656128	972.225281	-184.501617	596.453918	983.852417	-295.243256	733.258301	719.044739	-58.524044	769.049500	651.879944	-97.431435	716.761230	591.537903	-83.552795	805.893127	728.039429	-157.479111	770.987000	672.940674	-213.878113	782.055786	596.908569	-170.888702	664.121216	447.817535	-222.631531	693.374756	451.220123	-105.569893	685.554688	332.897797	-186.774536	694.457764	269.131439	-120.411682	675.350342	202.414749	-175.992355	658.225830	350.889252	-85.062103	601.743225	287.223755	-106.663643	655.920227	221.445465	-101.397522	649.410095	107.155647	-204.197845	634.281067	87.705399	-123.417686	577.752502	67.110512	-169.061615	782.803955	48.167431	-199.237961	790.646973	57.626221	-158.676743	770.429993	47.037369	-105.859184	777.354553	54.976089	-306.566315	781.601624	57.131207	-360.070557	754.139099	38.838768	-402.327820	573.792053	64.032227	-323.398071	644.891113	98.177673	-286.640411	625.805542	94.981911	-364.204956	695.994263	371.233917	-303.965912	710.475464	305.186920	-355.206390	676.444702	241.441986	-309.786438	657.367859	315.471741	-407.561371	600.602783	254.889084	-380.256622	648.921753	186.080566	-381.579834	666.888184	437.239258	-275.851013	678.974792	450.877991	-395.659393	678.144409	735.795227	-439.279694	735.322205	676.183472	-417.208618	689.645386	607.584045	-409.905762	785.484436	809.969177	-396.129333	802.033020	741.330200	-340.990814	774.859375	672.396423	-391.057587	679.779602	1404.507446	-387.445892	757.999207	1285.589600	-396.617859	607.255066	1247.627686	-384.152527	666.507141	1292.512573	-470.924103	739.881836	1290.690308	-512.935852	745.878357	1202.872437	-533.895691	813.697693	1130.306274	-531.106140	814.061401	1165.176636	-582.869141	892.555542	1105.804077	-648.288574	935.983337	1137.695679	-618.110840	898.210022	1143.378174	-631.468201	979.247192	1061.707520	-694.313293	1014.906677	1063.317871	-642.827515	648.936951	1397.662842	-105.492203	739.930847	1288.932129	-104.896805	603.974915	1244.463013	-100.496765	639.668152	1287.207031	-27.949730	706.002869	1294.672363	25.307766	712.501099	1213.275879	57.040688	773.516418	1123.893188	60.128113	782.508728	1173.599976	113.610039	882.637756	1097.143188	181.768082	886.840332	1141.116699	157.702560	924.392395	1132.958496	138.485703	951.374817	1064.264648	210.794556	999.315491	1081.456299	165.068085	635.348328	96.579792	-325.422684	641.845581	97.430523	-163.807766	813.879547	1147.741455	-556.987640	778.012573	1148.746582	86.869076	699.879908	865.622062	-341.980309	700.159483	861.523919	-148.000559	672.931488	444.058624	-335.755203	678.747986	449.518829	-164.100712	682.627136	1266.608643	-390.385193	671.952881	1266.697571	-102.696785	997.076935	1062.512695	-668.570404	975.345154	1072.860474	187.931320	
109	0.900000	775.301819	1618.257202	-189.154785	779.242737	1618.345093	-295.381866	631.413025	1544.314941	-180.137329	626.113342	1544.315552	-319.062805	609.337402	1421.444580	-249.079346	607.167297	1126.493896	-251.663757	749.245728	1352.234985	-244.961197	800.906494	1144.705688	-243.758362	768.949097	941.368225	-107.441452	768.533020	947.062683	-379.270721	597.513428	972.249207	-184.434174	596.324585	983.863586	-295.213745	733.186035	719.037231	-58.550846	769.018555	651.874817	-97.428551	716.752991	591.529968	-83.529655	805.817139	728.067871	-157.497650	770.908813	672.948914	-213.883575	781.991516	596.923767	-170.900803	664.034180	447.885223	-222.590515	693.421448	451.209412	-105.562416	685.554749	332.877716	-186.784164	694.516785	269.121307	-120.447891	675.375183	202.405029	-175.996109	658.322937	350.885468	-85.049728	601.744019	287.253082	-106.633636	656.009827	221.421600	-101.430557	649.401245	107.146370	-204.204895	634.301697	87.684006	-123.428200	577.779907	67.131294	-169.099686	782.834229	48.164577	-199.223328	790.611450	57.598148	-158.711838	770.445374	47.037834	-105.873627	777.307922	54.969971	-306.558105	781.633728	57.143097	-360.069763	754.145630	38.838638	-402.316040	573.781860	63.984776	-323.370087	644.964172	98.147064	-286.661102	625.781067	94.977005	-364.190033	695.962708	371.226593	-303.936523	710.445068	305.184082	-355.202759	676.344177	241.402328	-309.746460	657.347290	315.428528	-407.533447	600.489258	254.882538	-380.239838	648.860229	186.067322	-381.500366	667.321960	436.859131	-275.731323	678.890442	450.886902	-395.602692	677.978760	735.810242	-439.212097	735.252258	676.200073	-417.191864	689.467773	607.556458	-409.787445	785.342163	809.975525	-396.121368	801.887024	741.326660	-340.981506	774.762390	672.400513	-391.061157	679.635681	1404.499878	-387.424408	757.791138	1285.603516	-396.650635	607.137878	1247.624878	-384.134735	666.374084	1292.548462	-470.934570	739.755371	1290.690063	-512.939941	745.728210	1202.859375	-533.852539	813.599976	1130.285278	-531.035645	813.925293	1165.163452	-582.825989	892.437500	1105.784180	-648.213928	935.848022	1137.685303	-617.989990	898.114624	1143.405640	-631.371216	979.159302	1061.745972	-694.226685	1014.816833	1063.333130	-642.733154	648.809814	1397.630127	-105.457825	739.778870	1288.927002	-104.859222	603.769348	1244.464355	-100.369232	639.438354	1287.238159	-27.836927	705.870422	1294.634766	25.320353	712.381531	1213.244873	57.019012	773.390076	1123.871826	60.097946	782.382263	1173.567383	113.567192	882.539001	1097.121704	181.791428	886.705261	1141.098999	157.698318	924.250183	1132.945679	138.471878	951.262695	1064.220215	210.783173	999.199219	1081.445557	165.071136	635.372620	96.562035	-325.425568	641.851471	97.415188	-163.816547	813.762634	1147.724365	-556.930817	777.886169	1148.719604	86.832569	699.735492	865.601033	-341.942175	700.032445	861.536908	-147.938077	673.106201	443.873016	-335.667007	678.727814	449.547318	-164.076466	682.464508	1266.614197	-390.392685	671.774109	1266.695679	-102.614227	996.988068	1062.539551	-668.479919	975.230957	1072.832886	187.927155	
